<svg xmlns="http://www.w3.org/2000/svg" xml:space="preserve"
    style="enable-background:new 0 0 47.8 47.8" viewBox="0 0 47.8 47.8"><path d="M0 0h47.8v47.8H0z"/><path d="M33.5 12.6h3.1c.2 0 .3.2.3.3l-4.2 13.3c-.1.3-.4.2-.5 0L27.4 13c-.1-.2.1-.3.3-.3h.1V12h-9.6v.7h2.1c.1 0 .2.1.3.2.4 1.1.7 2.1 1.1 3.2.5 1.5 1.1 3 1.5 4.6.2.8-.5 1.9-.8 2.7l-1.5 3.9c-.1.3-.4.3-.5 0-1.7-4.8-3.6-9.5-5.5-14.2v-1H5.4v.7h1.7c.1 0 .2.1.3.2l1.5 3.8 5.7 14.7c.6 1.5 1.3 3 1.8 4.5v.1h.2c.3 0 .7-.1 1 0h.2c0-.2.2-.5.2-.6l.5-1.4c.1-.3.4-.3.5 0l1.5 4 1.2-3.6c.2-.5.5-1.1.6-1.7v-.1c0-.1-.1-.2-.1-.3-.2-.4-.3-.8-.5-1.2-.3-.7-.9-1.6-.7-2.3.1-.6.5-1.4.8-1.9l1.6-4c.1-.3.4-.3.5 0l3.5 9.5 1 2.6c.1.3.4.8.5 1.2H30.3c.3-.6.5-1.4.7-2 .1-.3.4-.3.5 0l.7 1.8c.6-1.6 1.3-3.2 1.8-4.9.1-.2.1 0-.1-.4l-.6-1.5c-.2-.4-.3-.7-.3-1.1.2-1.5 1-3.1 1.4-4.6L37.6 13c.1-.2.4-.2.5-.1l1.4 1.9.9-2.9h-7v.7z" style="fill-rule:evenodd;clip-rule:evenodd;fill:#fff"/></svg>